<?xml version="1.0" encoding="UTF-8"?>
<svg width="301px" height="60px" viewBox="0 0 301 60" version="1.1" xmlns="http://www.w3.org/2000/svg" xmlns:xlink="http://www.w3.org/1999/xlink">
    <!-- Generator: Sketch 55.2 (78181) - https://sketchapp.com -->
    <title>logo</title>
    <desc>Created with Sketch.</desc>
    <g id="Page-1" stroke="none" stroke-width="1" fill="none" fill-rule="evenodd">
        <g id="logo" fill="#333333" fill-rule="nonzero">
            <polygon id="Path" points="81 59.008 81 47.797 93.307 47.797 93.307 11.213 81 11.213 81 0 116.912 0 116.912 11.213 104.603 11.213 104.603 47.797 116.912 47.797 116.912 59.008"></polygon>
            <polygon id="Path" points="206.508 59.006 195.214 59.006 173.297 20.989 173.297 59.006 162 59.006 162 0 173.297 0 195.214 38.018 195.214 0 206.508 0 206.508 59.006"></polygon>
            <polygon id="Path" points="11.295 47.797 35.912 47.797 35.912 59.008 0 59.008 0 0 11.295 0"></polygon>
            <polygon id="Path" points="262.464 59.009 251 59.009 251 3.33066907e-16 262.464 3.33066907e-16 262.464 25.456 284.127 0 298.543 0 277.807 24.36 300.652 59.009 286.827 59.009 270.052 33.465 262.464 42.318"></polygon>
        </g>
    </g>
</svg>